<svg width="64" height="64" viewBox="0 0 64 64" fill="none" xmlns="http://www.w3.org/2000/svg">
<path fill-rule="evenodd" clip-rule="evenodd" d="M23.6341 36.002C24.6131 36.001 25.4831 35.376 25.7961 34.448C26.5851 31.996 28.8931 30.234 31.6091 30.234C34.3251 30.234 36.6331 31.996 37.4511 34.438C37.7601 35.354 38.6181 35.97 39.5841 35.97C40.5481 36.002 41.5331 36.002 41.5331 36.002C43.2571 36.002 44.9111 36.687 46.1291 37.906C47.3481 39.124 48.0331 40.778 48.0331 42.502C48.0331 42.503 48.0331 42.504 48.0331 42.505C48.0331 44.228 47.3481 45.882 46.1291 47.101C44.9111 48.32 43.2571 49.004 41.5331 49.004C35.7831 49.004 27.4351 49.004 21.6841 49.004C19.9611 49.004 18.3071 48.32 17.0881 47.101C15.8691 45.882 15.1851 44.228 15.1851 42.505C15.1851 42.504 15.1851 42.503 15.1851 42.502C15.1851 40.778 15.8691 39.124 17.0881 37.906C18.3071 36.687 19.9611 36.002 21.6841 36.002H23.6341Z" stroke="white" stroke-width="1.5" stroke-miterlimit="2" stroke-linecap="round" stroke-linejoin="round"/>
<path d="M11.864 44.68C10.894 44.367 10.002 43.826 9.26701 43.092C8.04801 41.873 7.36401 40.22 7.36401 38.496V38.493C7.36401 36.769 8.04801 35.116 9.26701 33.897C10.486 32.678 12.14 31.993 13.863 31.993H17.641C17.843 28.776 20.52 26.225 23.788 26.225C26.548 26.225 28.887 28.045 29.668 30.549" stroke="white" stroke-width="1.5" stroke-miterlimit="2" stroke-linecap="round" stroke-linejoin="round"/>
<path d="M37.2319 26.996C38.1139 26.505 39.1299 26.225 40.2119 26.225C42.9279 26.225 45.2359 27.987 46.0539 30.43C46.3629 31.345 47.2209 31.961 48.1869 31.961C49.1509 31.993 50.1369 31.993 50.1369 31.993C51.8599 31.993 53.5139 32.678 54.7329 33.897C55.9519 35.116 56.6359 36.769 56.6359 38.493V38.496C56.6359 40.22 55.9519 41.873 54.7329 43.092C53.5139 44.311 51.8599 44.996 50.1369 44.996H47.5369" stroke="white" stroke-width="1.5" stroke-miterlimit="2" stroke-linecap="round" stroke-linejoin="round"/>
<path d="M38.864 25.996C38.864 22.684 41.552 19.996 44.864 19.996C48.175 19.996 50.864 22.684 50.864 25.996C50.864 26.697 50.743 27.37 50.522 27.996" stroke="white" stroke-width="1.5" stroke-miterlimit="2" stroke-linecap="round" stroke-linejoin="round"/>
<path d="M44.864 14.996V16.996" stroke="white" stroke-width="1.5" stroke-miterlimit="2" stroke-linecap="round" stroke-linejoin="round"/>
<path d="M52.642 18.217L51.228 19.632" stroke="white" stroke-width="1.5" stroke-miterlimit="2" stroke-linecap="round" stroke-linejoin="round"/>
<path d="M55.864 25.996H53.864" stroke="white" stroke-width="1.5" stroke-miterlimit="2" stroke-linecap="round" stroke-linejoin="round"/>
<path d="M37.085 18.217L38.5 19.632" stroke="white" stroke-width="1.5" stroke-miterlimit="2" stroke-linecap="round" stroke-linejoin="round"/>
</svg>
